<svg width="614" height="147" viewBox="0 0 614 147" fill="none" xmlns="http://www.w3.org/2000/svg">
<path fill-rule="evenodd" clip-rule="evenodd" d="M27.7296 146.25C27.0043 145.511 27.4357 129.071 27.4357 126.603C27.4357 121.478 26.4486 110.492 28.0568 106.617C27.0323 104.823 27.7296 67.101 27.7296 61.5561C29.4484 62.3945 36.417 68.7049 37.7074 69.9141C43.2011 75.0626 51.3463 81.5416 57.1639 86.9935C65.5475 94.8499 77.6062 104.403 86.3808 112.589L106.055 129.874C107.803 129.021 109.711 127.19 111.113 125.928L155.227 87.1986C158.46 84.1824 161.749 81.6055 164.993 78.6865L179.736 65.8044C181.048 64.6681 183.454 62.2509 184.879 61.5561L184.842 105.146C184.508 106.25 184.98 105.605 184.114 106.253C184.9 107.776 184.343 106.378 184.855 107.319C185.103 107.776 184.996 107.285 185.199 108.144C185.332 108.709 185.263 109.978 185.254 110.606C185.101 121.942 185.753 135.57 185.198 146.227L184.879 146.228C185.329 147.011 183.773 147.055 189.359 146.967C191.024 146.941 192.691 146.953 194.358 146.953C210.669 146.953 212.321 147.755 212.317 137.868V49.5642C212.317 44.561 213.27 23.351 211.658 20.6096C210.007 17.8004 202.215 16.4522 198.327 20.1137L159.155 57.718C158.228 58.6136 157.754 58.9578 156.952 59.745C155.845 60.8313 155.737 61.2424 153.649 61.5561C154.519 63.0023 152.394 63.7479 150.625 65.3135C149.017 66.7357 148.095 67.4931 146.17 68.9708C144.514 70.2414 143.807 71.2994 141.881 72.7463C139.339 74.6554 138.584 75.8908 136.986 75.9972C136.412 77.764 125.961 85.9484 123.898 87.6354L116.382 94.1525C115.531 94.8856 115.113 95.0571 114.248 95.8686C111.632 98.3211 108.906 100.061 106.554 102.619C106.015 102.332 103.407 100.151 102.773 99.5586L96.9549 94.7121C96.01 93.9376 95.9655 93.6924 94.9534 92.8995C93.4854 91.7492 92.3994 90.7897 90.9716 89.6221L75.6226 76.2068C73.1216 75.3993 68.856 70.7045 64.4799 67.4972L58.5331 61.9194C55.5144 60.1546 44.4215 48.6609 40.816 45.4829C37.754 42.7842 35.0922 39.934 32.2252 37.2048L14.7708 20.4839C13.2482 18.9918 11.7474 18.019 8.26182 17.9178C4.98759 17.8228 2.22893 18.8708 1.18058 20.4141C-0.7773 23.2959 0.290782 43.8997 0.290782 49.2008V137.505C0.286882 148.904 2.88332 146.713 22.7455 146.96C28.9592 147.037 26.9789 147.05 27.7296 146.25Z" fill="#61C2D0"/>
<path fill-rule="evenodd" clip-rule="evenodd" d="M329.621 60.1028L330.362 59.2528L330.514 103.234H348.514V41.5699H322.572C322.401 43.063 314.506 57.3574 312.737 60.5706C310.994 63.7357 309.203 66.9651 307.679 69.9687L302.616 79.7258L282.162 41.5699H256.22V98.2589C256.214 103.782 254.47 103.763 261.703 103.713C266.021 103.683 270.358 103.71 274.679 103.71V60.1028C275.372 60.6843 275.164 60.5099 275.62 61.2337L280.808 70.9002C282.873 74.6559 284.678 78.1509 286.724 81.8535L298.625 103.71H306.607C308.01 99.3245 329.167 62.4991 329.621 60.1028Z" fill="#478D93"/>
<path fill-rule="evenodd" clip-rule="evenodd" d="M58.5331 61.9195L64.4799 67.4974C68.856 70.7047 73.1216 75.3994 75.6226 76.2069C77.9467 72.4066 80.6519 68.7653 83.2722 64.9479C87.0017 59.5149 96.0114 47.0167 98.7155 42.4015C100.009 40.1935 100.97 38.8027 102.396 36.7245L105.917 31.6578C106.514 30.9804 106.114 31.3995 106.554 31.0313L136.986 75.9974C138.584 75.891 139.339 74.6555 141.881 72.7464C143.807 71.2996 144.514 70.2416 146.17 68.971C148.095 67.4932 149.017 66.7359 150.625 65.3136C152.394 63.748 154.519 63.0025 153.649 61.5563C153.692 60.4009 153.623 60.9298 152.642 59.6132L115.201 5.47262C113.099 2.4003 111.803 -0.129807 106.119 0.00516142C100.133 0.147321 99.5791 2.6699 97.5737 5.59387C95.7051 8.31815 93.8769 10.6163 91.9197 13.4673L58.5331 61.9195Z" fill="#478D93"/>
<path fill-rule="evenodd" clip-rule="evenodd" d="M371.462 79.7258C371.462 86.5032 374.941 93.7455 381.553 98.176C392.049 105.209 413.686 106.531 426.706 102.887C435.962 100.295 441.732 96.302 445.228 89.4872C446.915 86.1989 447.791 81.9922 447.791 77.5456V41.5699H428.834V80.4527C428.834 88.2278 421.53 93.8982 410.874 93.8982C397.03 93.8982 389.921 89.2035 389.921 77.9089V41.5699H371.462V79.7258Z" fill="#478D93"/>
<path fill-rule="evenodd" clip-rule="evenodd" d="M553.594 103.365H613.491L613.332 92.808H571.516L571.383 77.1822C573.272 76.1663 589.167 76.6883 591.471 76.6883C598.506 76.6883 605.541 76.6883 612.575 76.6883L612.358 66.2804H571.516C571.516 62.5192 571.576 58.7538 571.486 54.9939C571.398 51.3225 570.475 52.1081 582.99 52.1081C593.3 52.1081 603.61 52.1081 613.921 52.1081V41.5699H553.594V103.365Z" fill="#478D93"/>
<path fill-rule="evenodd" clip-rule="evenodd" d="M467.747 56.8323C467.747 63.8891 469.019 67.5817 478.736 71.7211C484.251 74.0704 492.939 75.0279 499.74 76.4085C505.661 77.6106 515.191 79.3472 516.181 84.4438C518.356 95.6402 496.876 95.447 485.362 91.2424C483.171 90.4425 481.738 89.687 479.809 88.7458C477.561 87.6486 476.697 86.4991 474.731 85.5401C471.538 89.0129 467.946 92.2424 464.753 95.7151L471.33 99.2823C490.476 108.265 535.096 108.287 535.096 84.8135C535.096 68.9378 512.198 67.5603 498.494 64.597C493.475 63.5114 486.206 62.2915 486.206 57.9224C486.206 51.8008 494.758 51.3814 500.174 51.3814C505.473 51.3814 509.553 52.4327 513.224 53.5046C519.032 55.2008 519.854 56.6623 523.123 57.9224C524.573 56.3456 532.574 49.5462 533.101 48.1109C528.526 47.2211 524.472 40.4796 498.179 40.4796C483.971 40.4796 467.747 46.9092 467.747 56.8323Z" fill="#478D93"/>
<path fill-rule="evenodd" clip-rule="evenodd" d="M28.057 106.617C26.4488 110.492 27.4359 121.478 27.4359 126.603C27.4359 129.071 27.0045 145.511 27.7298 146.25C28.6676 145.676 59.6628 99.5061 62.153 96.0784L49.5237 84.9277C48.1716 83.7052 46.8195 81.9564 44.692 81.5426C44.0913 83.4208 34.2172 96.8191 32.2263 100.08C30.8537 102.329 29.2827 104.372 28.057 106.617Z" fill="#478D93"/>
<path fill-rule="evenodd" clip-rule="evenodd" d="M184.878 146.228L185.198 146.227C185.753 135.57 185.101 121.942 185.254 110.606C185.263 109.978 185.332 108.709 185.199 108.144C184.996 107.285 185.103 107.776 184.855 107.319C184.343 106.378 184.9 107.776 184.114 106.253C184.15 105.067 183.371 104.396 182.552 103.225L172.074 87.9626C170.928 86.2936 168.427 83.1392 167.916 81.5426C165.818 81.9509 165.332 83.047 163.315 84.7322L154.791 92.3321C153.465 93.4794 151.463 94.9821 150.455 96.0784C153.458 100.213 174.011 129.755 176.328 133.922C177.284 135.643 183.799 145.62 184.878 146.228Z" fill="#478D93"/>
<path fill-rule="evenodd" clip-rule="evenodd" d="M526.117 141.502H530.607V122.606C531.062 122.987 530.867 122.706 531.437 123.455L539.231 137.401C539.784 138.407 540.086 139.075 540.608 140.031C541.395 141.472 541.046 141.461 543.578 141.502C544.016 140.133 545.341 138.117 546.071 136.777C546.993 135.088 547.856 133.718 548.852 131.899L553.768 123.124C553.819 123.052 553.889 122.954 553.941 122.886C554.303 122.416 554.22 122.522 554.553 122.243V141.502H558.544V117.519C550.904 117.519 553.44 115.81 547.645 126.295C546.741 127.932 545.922 129.235 545.003 130.912C544.599 131.649 544.226 132.332 543.734 133.258C543.172 134.315 543.171 134.743 542.081 135.325C541.904 133.773 536.412 124.637 534.953 121.984C534.189 120.592 533.025 118.841 532.602 117.519H526.117V141.502Z" fill="#61C2D0"/>
<path fill-rule="evenodd" clip-rule="evenodd" d="M429.832 138.959H423.845V120.062C429.546 120.062 435.486 119.563 439.68 122.337C445.561 126.227 445.782 138.959 429.832 138.959ZM419.356 140.412C419.356 142.332 425.005 141.503 432.327 141.503C436.767 141.503 440.587 139.994 442.947 138.336C453.417 130.98 445.963 117.519 433.324 117.519H419.356V140.412Z" fill="#61C2D0"/>
<path fill-rule="evenodd" clip-rule="evenodd" d="M271.685 120.789C272.645 123.792 277.564 131.613 278.171 133.508H264.701C264.861 132.101 267.068 128.651 267.907 127.122C268.529 125.99 269.137 124.958 269.614 124.005C270.244 122.749 270.409 121.859 271.685 120.789ZM255.721 141.503H260.211C260.984 140.438 262.811 137.281 263.204 136.052H279.667C280.279 137.963 281.964 139.77 282.162 141.503H287.151L274.179 117.519H268.692L258.785 135.377C258.004 136.802 255.88 140.106 255.721 141.503Z" fill="#61C2D0"/>
<path fill-rule="evenodd" clip-rule="evenodd" d="M377.948 120.789L384.433 133.508H370.465C371.561 131.999 376.546 121.537 377.948 120.789ZM361.983 141.503H366.473C367.583 139.818 368.357 137.736 369.467 136.052H385.93C386.128 137.784 387.813 139.591 388.424 141.503H393.413C392.879 139.833 391.195 137.281 390.206 135.48C389.036 133.349 388.032 131.519 386.928 129.511C385.478 126.873 381.159 119.759 380.442 117.519H374.955L365.048 135.377C364.047 137.203 362.155 140.004 361.983 141.503Z" fill="#61C2D0"/>
<path fill-rule="evenodd" clip-rule="evenodd" d="M313.591 141.503H317.582C317.582 131.395 316.797 135.074 320.576 130.964C322.117 131.716 322.579 132.224 323.78 133.354C326.351 135.774 330.712 138.962 333.048 141.503H338.535C336.281 139.05 325.579 130.864 324.068 128.784L327.208 125.984C328.453 124.908 329.202 124.441 330.479 123.279C331.647 122.216 332.458 121.801 333.757 120.579C334.984 119.425 336.503 118.982 337.039 117.519H331.551C331.037 118.922 329.558 119.503 328.347 120.636L317.582 129.511V117.519H313.591V141.503Z" fill="#61C2D0"/>
<path fill-rule="evenodd" clip-rule="evenodd" d="M480.719 138.917L480.257 137.883C480.236 137.735 480.259 136.992 480.26 136.794L480.382 130.188L497.415 130.157V127.951L480.529 127.831L480.719 120.027L498.18 120.064V117.519H476.229V141.503H498.18V138.959L480.719 138.917Z" fill="#61C2D0"/>
<path fill-rule="evenodd" clip-rule="evenodd" d="M587.979 140.412C587.979 141.25 588.326 141.503 589.475 141.503H592.468V117.519H587.979V140.412Z" fill="#61C2D0"/>
<path fill-rule="evenodd" clip-rule="evenodd" d="M329.621 60.1027L329.93 60.571C330.506 62.7316 329.635 101.889 330.094 102.934C330.67 104.245 334.948 103.71 339.035 103.71L346.556 103.746C349.237 103.603 347.793 103.754 348.514 103.234H330.514L330.362 59.2527L329.621 60.1027Z" fill="#A4C7CA"/>
<path fill-rule="evenodd" clip-rule="evenodd" d="M571.383 77.1821H606.937C614.066 77.1886 612.923 78.0875 612.923 71.3677L612.947 67.3548C612.711 66.0607 612.966 66.7974 612.358 66.2803L612.575 76.6882C605.541 76.6882 598.506 76.6882 591.471 76.6882C589.167 76.6882 573.272 76.1662 571.383 77.1821Z" fill="#A4C7CA"/>
<path fill-rule="evenodd" clip-rule="evenodd" d="M553.594 103.365C554.073 103.586 553.597 103.551 554.61 103.674C555.11 103.734 555.991 103.727 556.521 103.727C557.857 103.728 559.201 103.71 560.54 103.71L613.146 103.489C613.231 103.469 613.379 103.411 613.491 103.365C614.189 102.403 613.983 94.1343 613.933 93.8908C613.628 92.4023 613.904 93.3645 613.332 92.808L613.491 103.365H553.594Z" fill="#C8DDDF"/>
<path fill-rule="evenodd" clip-rule="evenodd" d="M480.719 138.917V130.601C484.211 130.601 487.703 130.6 491.195 130.601C497.168 130.603 497.681 131.701 497.681 127.694H480.719V120.027L480.529 127.832L497.415 127.951V130.157L480.381 130.188L480.26 136.794C480.259 136.992 480.236 137.735 480.257 137.883L480.719 138.917Z" fill="#C8DDDF"/>
</svg>
